<svg xmlns="http://www.w3.org/2000/svg" xmlns:xlink="http://www.w3.org/1999/xlink" width="98" height="20" viewBox="0 0 98 20">
    <defs>
        <path id="a" d="M0 .133h9.406v12.616H0z"/>
    </defs>
    <g fill="none" fill-rule="evenodd" opacity=".5">
        <g transform="translate(0 7.059)">
            <mask id="b" fill="#fff">
                <use xlink:href="#a"/>
            </mask>
            <path fill="gray" d="M4.382.133H0s4.905 6.153 5.021 6.304l-5.02 6.312h4.444l4.961-6.312L4.441.133h-.06z" mask="url(#b)"/>
        </g>
        <path fill="gray" d="M22.614 7.059l-4.967 6.466L22.61 20h4.449s-4.909-6.323-5.024-6.475c.115-.155 5.024-6.466 5.024-6.466H22.614zM12.941 20h3.53V0h-3.53zM93.349 5.882c-1.412 0-2.865.748-3.732 2.082-.722-1.257-1.849-2.082-3.72-2.082-1.036 0-2.629.487-3.612 1.851v-1.56h-3.461v12.65h3.692v-6.527c0-2.548.871-3.484 2.212-3.484 1.537 0 1.664 1.483 1.664 2.673v7.339h3.69v-6.528c0-2.548.872-3.484 2.215-3.484 1.534 0 1.66 1.483 1.66 2.673v7.339h3.69v-8.092c0-3.355-1.666-4.85-4.298-4.85"/>
        <path fill="gray" d="M32.94 9.02c-1.963 0-3.556 1.754-3.556 3.922 0 2.165 1.593 3.92 3.556 3.92s3.556-1.755 3.556-3.92c0-2.168-1.593-3.922-3.556-3.922M40 12.942a7.059 7.059 0 0 1-14.118 0 7.058 7.058 0 1 1 14.118 0M51.765 7.453c-.82-.634-2.663-1.57-4.801-1.57-1.621 0-3.156.524-4.107 1.468-.74.736-1.132 1.704-1.132 2.798 0 2.828 2.054 3.43 3.703 3.918 1.223.359 2.284.643 2.284 1.636 0 .415-.146.755-.428 1.004-.456.404-1.16.487-1.662.438-1.06-.117-2.149-.608-3.025-1.383l-.153-.135-1.268 2.686.104.08c1.14.91 2.966 1.554 4.537 1.603 1.78.055 3.408-.475 4.429-1.464.806-.781 1.216-1.794 1.216-3.007 0-2.945-2.232-3.617-4.004-4.157-1.122-.337-2.005-.608-2.005-1.345 0-.358.121-.653.364-.88.34-.316.907-.48 1.525-.441 1.136.072 2.363.698 3.055 1.214l1.368-2.463zM69.637 16.863c-1.901 0-3.442-1.756-3.442-3.92 0-2.17 1.54-3.923 3.442-3.923 1.9 0 3.443 1.754 3.443 3.922 0 2.165-1.543 3.92-3.443 3.92m0-10.98c-3.773 0-6.831 3.16-6.831 7.06 0 .294.017.585.05.867.01.072.017.146.028.218.063.39-.053.719-.166.95a1.843 1.843 0 0 1-.069.128c-.617 1.059-1.674 1.758-2.873 1.758-1.902 0-3.444-1.756-3.444-3.92 0-2.17 1.542-3.923 3.444-3.923.517 0 1.01.133 1.451.371l1.55-2.785a6.615 6.615 0 0 0-3.001-.724c-3.777 0-6.835 3.16-6.835 7.06C52.941 16.84 56 20 59.776 20c1.936 0 3.685-.837 4.931-2.175C65.95 19.165 67.701 20 69.637 20c3.777 0 6.834-3.16 6.834-7.058 0-3.9-3.057-7.06-6.834-7.06"/>
    </g>
</svg>
